<svg width="112" height="43" viewBox="0 0 112 43" fill="none" xmlns="http://www.w3.org/2000/svg">
<rect y="35.5" width="8" height="1" rx="0.5" fill="#1C1C1C"/>
<rect x="104" y="35.5" width="8" height="1" rx="0.5" fill="#1C1C1C"/>
<path d="M13.4707 34.8203C13.6367 34.4753 13.889 34.2051 14.2275 34.0098C14.5661 33.8112 14.9551 33.7119 15.3945 33.7119V34.5713C15.0397 34.5713 14.7223 34.6331 14.4424 34.7568C14.1624 34.8773 13.9378 35.0498 13.7686 35.2744C13.5993 35.499 13.5 35.7611 13.4707 36.0605V39H12.4844V33.8291H13.4707V34.8203ZM18.7393 38.2383C19.0029 38.2383 19.2764 38.1862 19.5596 38.082C19.8428 37.9746 20.0625 37.8411 20.2188 37.6816L20.8389 38.3213C20.6175 38.5557 20.3083 38.7477 19.9111 38.8975C19.5173 39.0472 19.1299 39.1221 18.749 39.1221C18.2673 39.1221 17.8229 39.0049 17.416 38.7705C17.0091 38.5361 16.6868 38.2122 16.4492 37.7988C16.2083 37.3854 16.0879 36.9199 16.0879 36.4023C16.0879 35.901 16.2002 35.4453 16.4248 35.0352C16.6527 34.6217 16.9668 34.2962 17.3672 34.0586C17.7611 33.8275 18.194 33.7119 18.666 33.7119C19.1836 33.7119 19.6296 33.8356 20.0039 34.083C20.3783 34.3304 20.6663 34.6868 20.8682 35.1523C21.0602 35.6146 21.1562 36.1501 21.1562 36.7588H17.0889C17.1312 37.0518 17.2272 37.3105 17.377 37.5352C17.5267 37.7565 17.7188 37.929 17.9531 38.0527C18.1875 38.1764 18.4495 38.2383 18.7393 38.2383ZM18.71 34.5908C18.443 34.5908 18.1973 34.6478 17.9727 34.7617C17.748 34.8724 17.5592 35.0319 17.4062 35.2402C17.2533 35.4486 17.1507 35.6911 17.0986 35.9678H20.1992C20.1374 35.5381 19.9779 35.2012 19.7207 34.957C19.4635 34.7129 19.1266 34.5908 18.71 34.5908ZM24.1836 39.1221C23.7995 39.1221 23.4105 39.0553 23.0166 38.9219C22.626 38.7852 22.2793 38.5947 21.9766 38.3506L22.4453 37.6377C23.028 38.0576 23.6107 38.2676 24.1934 38.2676C24.4896 38.2676 24.7272 38.2074 24.9062 38.0869C25.0853 37.9632 25.1748 37.8005 25.1748 37.5986C25.1748 37.4587 25.1341 37.3431 25.0527 37.252C24.9746 37.1608 24.8558 37.0827 24.6963 37.0176C24.5368 36.9492 24.3073 36.8727 24.0078 36.7881C23.5684 36.6676 23.2201 36.5423 22.9629 36.4121C22.709 36.2786 22.5218 36.1208 22.4014 35.9385C22.2842 35.7562 22.2256 35.5299 22.2256 35.2598C22.2256 34.9538 22.3053 34.6836 22.4648 34.4492C22.6243 34.2148 22.8457 34.0342 23.1289 33.9072C23.4121 33.777 23.7376 33.7119 24.1055 33.7119C24.4245 33.7119 24.75 33.7656 25.082 33.873C25.4141 33.9772 25.7249 34.1221 26.0146 34.3076L25.5752 35.04C25.0739 34.721 24.584 34.5615 24.1055 34.5615C23.8385 34.5615 23.6204 34.6185 23.4512 34.7324C23.2819 34.8431 23.1973 34.9896 23.1973 35.1719C23.1973 35.3021 23.2331 35.4079 23.3047 35.4893C23.3763 35.5706 23.4935 35.6439 23.6562 35.709C23.7702 35.7643 24.0127 35.8473 24.3838 35.958C24.6833 36.0524 24.916 36.1322 25.082 36.1973C25.2513 36.2591 25.4043 36.334 25.541 36.4219C25.6777 36.5065 25.7998 36.6123 25.9072 36.7393C26.0667 36.9443 26.1465 37.2048 26.1465 37.5205C26.1465 37.8363 26.0635 38.1162 25.8975 38.3604C25.7314 38.6012 25.4987 38.7884 25.1992 38.9219C24.903 39.0553 24.5645 39.1221 24.1836 39.1221ZM30.0771 38.751C29.9339 38.8682 29.7712 38.9593 29.5889 39.0244C29.4098 39.0895 29.2292 39.1221 29.0469 39.1221C28.7832 39.1221 28.5472 39.0635 28.3389 38.9463C28.1338 38.8258 27.9727 38.6582 27.8555 38.4434C27.7415 38.2285 27.6846 37.9844 27.6846 37.7109V34.6689H26.9082V33.8291H27.6846V32.4082H28.6562V33.8291H29.877V34.6689H28.6562V37.6377C28.6562 37.8167 28.7067 37.9648 28.8076 38.082C28.9118 38.1992 29.0387 38.2578 29.1885 38.2578C29.2926 38.2578 29.3919 38.2415 29.4863 38.209C29.584 38.1732 29.6605 38.1276 29.7158 38.0723L30.0771 38.751ZM33.2559 33.7119C33.7018 33.7119 34.0876 33.8014 34.4131 33.9805C34.7386 34.1562 34.986 34.4069 35.1553 34.7324C35.3278 35.0547 35.4141 35.4339 35.4141 35.8701V39H34.4473V38.292C34.265 38.5459 34.0143 38.7477 33.6953 38.8975C33.3796 39.0472 33.0557 39.1221 32.7236 39.1221C32.3525 39.1221 32.0221 39.0537 31.7324 38.917C31.446 38.7803 31.2214 38.5866 31.0586 38.3359C30.8958 38.0853 30.8145 37.7972 30.8145 37.4717C30.8145 37.1396 30.9056 36.8418 31.0879 36.5781C31.2702 36.3112 31.5225 36.1045 31.8447 35.958C32.1637 35.818 32.5104 35.748 32.8848 35.748C33.3796 35.748 33.9004 35.8424 34.4473 36.0312V35.8701C34.4473 35.4632 34.3382 35.1393 34.1201 34.8984C33.902 34.6543 33.5667 34.5322 33.1143 34.5322C32.6911 34.5322 32.2044 34.6755 31.6543 34.9619L31.293 34.2295C31.9733 33.8844 32.6276 33.7119 33.2559 33.7119ZM32.9141 38.3408C33.1484 38.3408 33.373 38.3018 33.5879 38.2236C33.8027 38.1455 33.9867 38.0348 34.1396 37.8916C34.2926 37.7451 34.3952 37.5742 34.4473 37.3789V36.6904C34.0111 36.557 33.5407 36.4902 33.0361 36.4902C32.8018 36.4902 32.5869 36.5309 32.3916 36.6123C32.1995 36.6937 32.0465 36.8076 31.9326 36.9541C31.8219 37.1006 31.7666 37.2633 31.7666 37.4424C31.7666 37.6214 31.8154 37.7793 31.9131 37.916C32.0107 38.0527 32.1458 38.1585 32.3184 38.2334C32.4941 38.305 32.6927 38.3408 32.9141 38.3408ZM41.3955 33.8291V39H40.4092V38.248C40.2464 38.5117 40.0169 38.7233 39.7207 38.8828C39.4277 39.0423 39.1104 39.1221 38.7686 39.1221C38.3942 39.1221 38.0589 39.0374 37.7627 38.8682C37.4665 38.6956 37.2386 38.4564 37.0791 38.1504C36.9098 37.8509 36.8252 37.5075 36.8252 37.1201V33.8291H37.7969V36.9492C37.7969 37.2031 37.8473 37.4294 37.9482 37.6279C38.0524 37.8265 38.194 37.9811 38.373 38.0918C38.5553 38.2025 38.7604 38.2578 38.9883 38.2578C39.2227 38.2578 39.444 38.2106 39.6523 38.1162C39.8607 38.0218 40.0316 37.8932 40.165 37.7305C40.3018 37.5645 40.3831 37.3805 40.4092 37.1787V33.8291H41.3955ZM43.8809 34.8203C44.0469 34.4753 44.2992 34.2051 44.6377 34.0098C44.9762 33.8112 45.3652 33.7119 45.8047 33.7119V34.5713C45.4499 34.5713 45.1325 34.6331 44.8525 34.7568C44.5726 34.8773 44.348 35.0498 44.1787 35.2744C44.0094 35.499 43.9102 35.7611 43.8809 36.0605V39H42.8945V33.8291H43.8809V34.8203ZM48.9492 33.7119C49.3952 33.7119 49.7809 33.8014 50.1064 33.9805C50.432 34.1562 50.6794 34.4069 50.8486 34.7324C51.0212 35.0547 51.1074 35.4339 51.1074 35.8701V39H50.1406V38.292C49.9583 38.5459 49.7077 38.7477 49.3887 38.8975C49.0729 39.0472 48.749 39.1221 48.417 39.1221C48.0459 39.1221 47.7155 39.0537 47.4258 38.917C47.1393 38.7803 46.9147 38.5866 46.752 38.3359C46.5892 38.0853 46.5078 37.7972 46.5078 37.4717C46.5078 37.1396 46.599 36.8418 46.7812 36.5781C46.9635 36.3112 47.2158 36.1045 47.5381 35.958C47.8571 35.818 48.2038 35.748 48.5781 35.748C49.0729 35.748 49.5938 35.8424 50.1406 36.0312V35.8701C50.1406 35.4632 50.0316 35.1393 49.8135 34.8984C49.5954 34.6543 49.2601 34.5322 48.8076 34.5322C48.3844 34.5322 47.8978 34.6755 47.3477 34.9619L46.9863 34.2295C47.6667 33.8844 48.321 33.7119 48.9492 33.7119ZM48.6074 38.3408C48.8418 38.3408 49.0664 38.3018 49.2812 38.2236C49.4961 38.1455 49.68 38.0348 49.833 37.8916C49.986 37.7451 50.0885 37.5742 50.1406 37.3789V36.6904C49.7044 36.557 49.234 36.4902 48.7295 36.4902C48.4951 36.4902 48.2803 36.5309 48.085 36.6123C47.8929 36.6937 47.7399 36.8076 47.626 36.9541C47.5153 37.1006 47.46 37.2633 47.46 37.4424C47.46 37.6214 47.5088 37.7793 47.6064 37.916C47.7041 38.0527 47.8392 38.1585 48.0117 38.2334C48.1875 38.305 48.3861 38.3408 48.6074 38.3408ZM55.1699 33.7119C55.5443 33.7119 55.8796 33.7965 56.1758 33.9658C56.4753 34.1318 56.7064 34.3662 56.8691 34.6689C57.0286 34.9782 57.1084 35.3249 57.1084 35.709V39H56.1416V35.8799C56.1416 35.626 56.0895 35.3997 55.9854 35.2012C55.8844 35.0026 55.7428 34.848 55.5605 34.7373C55.3815 34.6266 55.1781 34.5713 54.9502 34.5713C54.7158 34.5713 54.4945 34.6185 54.2861 34.7129C54.0778 34.8073 53.9053 34.9375 53.7686 35.1035C53.6351 35.2663 53.5553 35.4486 53.5293 35.6504V39H52.5381V33.8291H53.5293V34.5811C53.6921 34.3174 53.9199 34.1074 54.2129 33.9512C54.5091 33.7917 54.8281 33.7119 55.1699 33.7119ZM61.3174 38.751C61.1742 38.8682 61.0114 38.9593 60.8291 39.0244C60.6501 39.0895 60.4694 39.1221 60.2871 39.1221C60.0234 39.1221 59.7874 39.0635 59.5791 38.9463C59.374 38.8258 59.2129 38.6582 59.0957 38.4434C58.9818 38.2285 58.9248 37.9844 58.9248 37.7109V34.6689H58.1484V33.8291H58.9248V32.4082H59.8965V33.8291H61.1172V34.6689H59.8965V37.6377C59.8965 37.8167 59.9469 37.9648 60.0479 38.082C60.152 38.1992 60.279 38.2578 60.4287 38.2578C60.5329 38.2578 60.6322 38.2415 60.7266 38.209C60.8242 38.1732 60.9007 38.1276 60.9561 38.0723L61.3174 38.751ZM68.0557 33.7119C68.5016 33.7119 68.9069 33.8258 69.2715 34.0537C69.6361 34.2816 69.9209 34.6006 70.126 35.0107C70.3343 35.4176 70.4385 35.8848 70.4385 36.4121C70.4385 36.9297 70.3359 37.3952 70.1309 37.8086C69.9258 38.2188 69.641 38.5394 69.2764 38.7705C68.8988 39.0049 68.4919 39.1221 68.0557 39.1221C67.6618 39.1221 67.307 39.0342 66.9912 38.8584C66.6755 38.6794 66.4167 38.4271 66.2148 38.1016V40.7188H65.2383V33.8291H66.2148V34.7178C66.4232 34.3955 66.6836 34.1481 66.9961 33.9756C67.3118 33.7998 67.665 33.7119 68.0557 33.7119ZM67.8164 38.2578C68.1322 38.2578 68.4121 38.1797 68.6562 38.0234C68.9036 37.8672 69.0973 37.6458 69.2373 37.3594C69.3708 37.0762 69.4375 36.7604 69.4375 36.4121C69.4375 36.0573 69.3691 35.7399 69.2324 35.46C69.0957 35.18 68.9036 34.9603 68.6562 34.8008C68.4056 34.6478 68.1257 34.5713 67.8164 34.5713C67.5104 34.5713 67.2354 34.6494 66.9912 34.8057C66.7503 34.9619 66.5615 35.18 66.4248 35.46C66.2848 35.7464 66.2148 36.0638 66.2148 36.4121C66.2148 36.7637 66.2832 37.0811 66.4199 37.3643C66.5599 37.6475 66.752 37.8656 66.9961 38.0186C67.2337 38.1781 67.5072 38.2578 67.8164 38.2578ZM73.8125 33.7119C74.2585 33.7119 74.6442 33.8014 74.9697 33.9805C75.2952 34.1562 75.5426 34.4069 75.7119 34.7324C75.8844 35.0547 75.9707 35.4339 75.9707 35.8701V39H75.0039V38.292C74.8216 38.5459 74.571 38.7477 74.252 38.8975C73.9362 39.0472 73.6123 39.1221 73.2803 39.1221C72.9092 39.1221 72.5788 39.0537 72.2891 38.917C72.0026 38.7803 71.778 38.5866 71.6152 38.3359C71.4525 38.0853 71.3711 37.7972 71.3711 37.4717C71.3711 37.1396 71.4622 36.8418 71.6445 36.5781C71.8268 36.3112 72.0791 36.1045 72.4014 35.958C72.7204 35.818 73.0671 35.748 73.4414 35.748C73.9362 35.748 74.457 35.8424 75.0039 36.0312V35.8701C75.0039 35.4632 74.8949 35.1393 74.6768 34.8984C74.4587 34.6543 74.1234 34.5322 73.6709 34.5322C73.2477 34.5322 72.7611 34.6755 72.2109 34.9619L71.8496 34.2295C72.5299 33.8844 73.1842 33.7119 73.8125 33.7119ZM73.4707 38.3408C73.7051 38.3408 73.9297 38.3018 74.1445 38.2236C74.3594 38.1455 74.5433 38.0348 74.6963 37.8916C74.8493 37.7451 74.9518 37.5742 75.0039 37.3789V36.6904C74.5677 36.557 74.0973 36.4902 73.5928 36.4902C73.3584 36.4902 73.1436 36.5309 72.9482 36.6123C72.7562 36.6937 72.6032 36.8076 72.4893 36.9541C72.3786 37.1006 72.3232 37.2633 72.3232 37.4424C72.3232 37.6214 72.3721 37.7793 72.4697 37.916C72.5674 38.0527 72.7025 38.1585 72.875 38.2334C73.0508 38.305 73.2493 38.3408 73.4707 38.3408ZM78.4414 34.8203C78.6074 34.4753 78.8597 34.2051 79.1982 34.0098C79.5368 33.8112 79.9258 33.7119 80.3652 33.7119V34.5713C80.0104 34.5713 79.693 34.6331 79.4131 34.7568C79.1331 34.8773 78.9085 35.0498 78.7393 35.2744C78.57 35.499 78.4707 35.7611 78.4414 36.0605V39H77.4551V33.8291H78.4414V34.8203ZM84.1201 38.751C83.9769 38.8682 83.8141 38.9593 83.6318 39.0244C83.4528 39.0895 83.2721 39.1221 83.0898 39.1221C82.8262 39.1221 82.5902 39.0635 82.3818 38.9463C82.1768 38.8258 82.0156 38.6582 81.8984 38.4434C81.7845 38.2285 81.7275 37.9844 81.7275 37.7109V34.6689H80.9512V33.8291H81.7275V32.4082H82.6992V33.8291H83.9199V34.6689H82.6992V37.6377C82.6992 37.8167 82.7497 37.9648 82.8506 38.082C82.9548 38.1992 83.0817 38.2578 83.2314 38.2578C83.3356 38.2578 83.4349 38.2415 83.5293 38.209C83.627 38.1732 83.7035 38.1276 83.7588 38.0723L84.1201 38.751ZM87.7578 33.7119C88.1322 33.7119 88.4674 33.7965 88.7637 33.9658C89.0632 34.1318 89.2943 34.3662 89.457 34.6689C89.6165 34.9782 89.6963 35.3249 89.6963 35.709V39H88.7295V35.8799C88.7295 35.626 88.6774 35.3997 88.5732 35.2012C88.4723 35.0026 88.3307 34.848 88.1484 34.7373C87.9694 34.6266 87.766 34.5713 87.5381 34.5713C87.3037 34.5713 87.0824 34.6185 86.874 34.7129C86.6657 34.8073 86.4932 34.9375 86.3564 35.1035C86.223 35.2663 86.1432 35.4486 86.1172 35.6504V39H85.126V33.8291H86.1172V34.5811C86.2799 34.3174 86.5078 34.1074 86.8008 33.9512C87.097 33.7917 87.416 33.7119 87.7578 33.7119ZM93.4951 38.2383C93.7588 38.2383 94.0322 38.1862 94.3154 38.082C94.5986 37.9746 94.8184 37.8411 94.9746 37.6816L95.5947 38.3213C95.3734 38.5557 95.0641 38.7477 94.667 38.8975C94.2731 39.0472 93.8857 39.1221 93.5049 39.1221C93.0231 39.1221 92.5788 39.0049 92.1719 38.7705C91.765 38.5361 91.4427 38.2122 91.2051 37.7988C90.9642 37.3854 90.8438 36.9199 90.8438 36.4023C90.8438 35.901 90.9561 35.4453 91.1807 35.0352C91.4085 34.6217 91.7227 34.2962 92.123 34.0586C92.5169 33.8275 92.9499 33.7119 93.4219 33.7119C93.9395 33.7119 94.3854 33.8356 94.7598 34.083C95.1341 34.3304 95.4222 34.6868 95.624 35.1523C95.8161 35.6146 95.9121 36.1501 95.9121 36.7588H91.8447C91.887 37.0518 91.9831 37.3105 92.1328 37.5352C92.2826 37.7565 92.4746 37.929 92.709 38.0527C92.9434 38.1764 93.2054 38.2383 93.4951 38.2383ZM93.4658 34.5908C93.1989 34.5908 92.9531 34.6478 92.7285 34.7617C92.5039 34.8724 92.3151 35.0319 92.1621 35.2402C92.0091 35.4486 91.9066 35.6911 91.8545 35.9678H94.9551C94.8932 35.5381 94.7337 35.2012 94.4766 34.957C94.2194 34.7129 93.8825 34.5908 93.4658 34.5908ZM98.1094 34.8203C98.2754 34.4753 98.5277 34.2051 98.8662 34.0098C99.2048 33.8112 99.5938 33.7119 100.033 33.7119V34.5713C99.6784 34.5713 99.361 34.6331 99.0811 34.7568C98.8011 34.8773 98.5765 35.0498 98.4072 35.2744C98.238 35.499 98.1387 35.7611 98.1094 36.0605V39H97.123V33.8291H98.1094V34.8203Z" fill="#1C1C1C"/>
<path fill-rule="evenodd" clip-rule="evenodd" d="M93.2716 17.8161L92.5906 21.9566C91.5394 22.5107 89.5704 23.3271 87.2904 23.3271C83.4263 23.3271 82.6416 21.286 83.2486 16.9851L84.2258 10.0452H82.3307L82.8637 5.55477L84.9364 5.45271L85.7211 2.18692L91.6135 0L90.8732 5.43813H94.915C94.7817 5.99215 94.308 9.08299 94.1747 10.0307H90.2366L89.3483 16.4456C89.1114 18.0931 89.2447 18.6908 90.3995 18.6908C91.2433 18.6908 92.5018 18.2097 93.2716 17.8161ZM16.9666 15.6146C16.9666 9.81197 21.186 4.95701 26.7083 4.95701C31.742 4.95701 34.2292 8.29571 34.2292 12.6258C34.2292 18.4722 30.0394 23.3271 24.4875 23.3271C19.513 23.3271 16.9666 19.9738 16.9666 15.6146ZM23.0958 15.4251C23.0958 17.5682 23.8065 18.6617 25.0353 18.6617C26.6787 18.6617 27.9667 16.052 27.9667 12.8882C27.9667 10.7013 27.2412 9.65159 26.0568 9.65159C24.4283 9.65159 23.0958 12.2176 23.0958 15.4251ZM16.9962 9.15589L17.0998 5.963C15.0567 6.06505 13.2209 6.10879 10.0082 6.10879C6.593 6.10879 5.50608 6.06736 2.97959 5.97104L2.76854 5.963C2.53166 7.75627 2.29478 9.53496 1.95426 11.1533C3.47918 11.1095 4.84124 11.0804 8.5425 11.0804L0.0740251 20.1051L0 23.3271C2.0727 23.1813 4.64878 23.1522 7.60978 23.1522C10.2599 23.1522 12.91 23.1813 14.6126 23.3271C14.9043 21.357 15.1961 20.0031 15.5368 18.4222L15.6045 18.1077C14.3165 18.1806 12.0809 18.2097 8.5425 18.2097L16.9962 9.15589ZM104.479 4.95701C98.9568 4.95701 94.7373 9.81197 94.7373 15.6146C94.7373 19.9738 97.2838 23.3271 102.258 23.3271C107.81 23.3271 112 18.4722 112 12.6258C112 8.29571 109.513 4.95701 104.479 4.95701ZM102.702 18.7054C101.488 18.7054 100.793 17.6266 100.793 15.5125C100.793 12.3488 102.11 9.81197 103.724 9.81197C104.894 9.81197 105.604 10.8471 105.604 13.0049C105.589 16.1249 104.316 18.7054 102.702 18.7054ZM59.6198 5.64224C62.9806 5.64224 63.2174 8.35402 62.7733 11.3282L60.7154 23.3271H54.897L56.4515 12.8007C56.5848 11.751 56.6144 10.9783 55.7705 10.9783C54.3048 10.9783 52.4098 13.7484 51.9656 16.0957L51.4178 19.7114L51.3841 19.9519C51.2149 21.1571 51.0311 22.4662 51.0033 23.3271H44.6223C44.9217 22.0069 45.2211 19.9992 45.5003 18.1265L45.5004 18.1262L45.5011 18.1211C45.5392 17.8655 45.577 17.6125 45.6143 17.3641L46.2213 13.2964C46.4582 11.7802 46.4878 10.9783 45.6439 10.9783C44.1782 10.9783 42.2831 13.7484 41.839 16.0957L41.2912 19.7114C41.2535 19.9808 41.2131 20.2574 41.1726 20.5348C41.0223 21.5637 40.8704 22.6037 40.8471 23.3271H34.5253C34.8247 22.0069 35.1241 19.9992 35.4033 18.1265L35.4034 18.1262L35.4041 18.1211C35.4422 17.8655 35.4799 17.6125 35.5173 17.3641L36.3019 12.1009C36.6128 10.1036 36.7165 8.00411 36.6424 6.38579C39.026 6.3129 40.7138 6.13794 42.6533 5.81719C42.7865 6.38579 42.8901 9.01009 42.4164 11.3282C44.2818 7.78542 46.9911 5.64224 49.508 5.64224C52.8243 5.64224 53.076 8.28112 52.6615 11.0804C54.5269 7.68336 57.177 5.64224 59.6198 5.64224ZM74.9578 15.7458C74.6025 17.7723 73.122 19.7989 70.9901 20.0613C69.554 20.2363 68.2956 19.3761 68.1475 18.268C68.0587 17.5245 68.266 16.8976 68.6805 16.3727C69.2283 15.6583 70.2498 15.148 71.4786 15.0022C72.7667 14.8419 74.0991 15.0022 75.017 15.2064L74.9578 15.7458ZM63.5728 19.7697C64.165 22.4523 66.1488 23.6333 69.1691 23.2688C71.2862 23.0064 72.9592 22.0295 74.2176 20.3675C74.188 20.9361 74.1287 21.4026 74.0695 21.7671C73.9807 22.3357 73.8623 22.7731 73.7438 23.1084H79.5474C79.5178 22.3211 79.5178 21.7525 79.5474 21.4318C79.7102 19.3178 80.0952 16.1832 80.7022 11.9989C80.8058 11.1387 80.8058 10.191 80.6874 9.2871C80.258 5.90467 76.9713 4.43215 72.2929 5.00074C69.8353 5.29233 67.7034 6.02131 66.0008 6.98355L67.2148 10.6138C68.4584 9.9286 70.0722 9.31626 71.7747 9.11215C74.2768 8.80598 75.2983 9.56411 75.4612 10.8325C75.5204 11.3282 75.476 11.751 75.4316 12.1593L75.3724 12.4217C73.8326 12.1447 72.2041 12.028 70.2498 12.2613C67.8218 12.5529 65.8379 13.5151 64.6239 15.0168C63.7208 16.154 63.2026 18.0785 63.5728 19.7697Z" fill="#1C1C1C"/>
</svg>
